# AST/ASF file generated using VICON BodyLanguage
# -----------------------------------------------
:version 1.10
:name VICON
:units
  mass 1.0
  length 0.45
  angle deg
:documentation
   .ast/.asf automatically generated from VICON data using
   VICON BodyBuilder and BodyLanguage model FoxedUp or BRILLIANT.MOD
:root
   order TX TY TZ RX RY RZ
   axis XYZ
   position 0 0 0  
   orientation 0 0 0 
:bonedata
  begin
     id 1 
     name lhipjoint
     direction 0.612567 -0.751349 0.245431 
     length 2.42285 
     axis 0 0 0  XYZ
  end
  begin
     id 2 
     name lfemur
     direction 0.34202 -0.939693 0  
     length 7.11304  
     axis 0 0 20  XYZ
    dof rx ry rz
    limits (-160.0 20.0)
           (-70.0 70.0)
           (-60.0 70.0)
  end
  begin
     id 3 
     name ltibia
     direction 0.34202 -0.939693 0   
     length 7.84529   
     axis 0 0 20   XYZ
    dof rx
    limits (-10.0 170.0)
  end
  begin
     id 4 
     name lfoot
     direction 0.0779239 -0.214094 0.9737   
     length 1.97176   
     axis -90 7.62852e-016 20   XYZ
    dof rx rz
    limits (-45.0 90.0)
           (-70.0 20.0)
  end
  begin
     id 5 
     name ltoes
     direction 1.53565e-011 -4.21709e-011 1   
     length 0.993197   
     axis -90 7.62852e-016 20   XYZ
    dof rx
    limits (-90.0 20.0)
  end
  begin
     id 6 
     name rhipjoint
     direction -0.665722 -0.709315 0.231701   
     length 2.56642  
     axis 0 0 0  XYZ 
  end
  begin
     id 7 
     name rfemur
     direction -0.34202 -0.939693 0   
     length 7.32108   
     axis 0 0 -20   XYZ
    dof rx ry rz
    limits (-160.0 20.0)
           (-70.0 70.0)
           (-70.0 60.0)
  end
  begin
     id 8 
     name rtibia
     direction -0.34202 -0.939693 0   
     length 7.81254   
     axis 0 0 -20   XYZ
    dof rx
    limits (-10.0 170.0)
 end
 begin
     id 9 
     name rfoot
     direction -0.0832806 -0.228812 0.969902   
     length 2.08278  
     axis -90 -7.62852e-016 -20   XYZ
    dof rx rz
    limits (-45.0 90.0)
           (-20.0 70.0)
  end
  begin
     id 10 
     name rtoes
     direction -1.53589e-011 -4.22086e-011 1   
     length 1.04609   
     axis -90 -7.62852e-016 -20   XYZ
    dof rx
    limits (-90.0 20.0)
  end
  begin
     id 11 
     name lowerback
     direction -0.00506013 0.988403 -0.151766   
     length 2.01978   
     axis 0 0 0   XYZ
    dof rx ry rz
    limits (-20.0 45.0)
           (-30.0 30.0)
           (-30.0 30.0)
  end
  begin
     id 12 
     name upperback
     direction -0.00836389 0.99968 0.0238859   
     length 2.01276   
     axis 0 0 0   XYZ
    dof rx ry rz
    limits (-20.0 45.0)
           (-30.0 30.0)
           (-30.0 30.0)
  end
  begin
     id 13 
     name thorax
     direction -0.00684136 0.995386 0.0957043   
     length 2.07303   
     axis 0 0 0   XYZ
    dof rx ry rz
    limits (-20.0 45.0)
           (-30.0 30.0)
           (-30.0 30.0)
  end
  begin
     id 14 
     name lowerneck
     direction -0.0161045 0.999661 0.0204485   
     length 1.91243   
     axis 0 0 0   XYZ
    dof rx ry rz
    limits (-20.0 45.0)
           (-30.0 30.0)
           (-30.0 30.0)
  end
  begin
     id 15 
     name upperneck
     direction 0.0553583 0.990946 -0.122319   
     length 1.91574   
     axis 0 0 0   XYZ
    dof rx ry rz
    limits (-20.0 45.0)
           (-30.0 30.0)
           (-30.0 30.0)
  end
  begin
     id 16
     name head
     direction 0.0180273 0.998839 -0.0446756  
     length 1.92693  
     axis 0 0 0   XYZ
    dof rx ry rz
    limits (-20.0 45.0)
           (-30.0 30.0)
           (-30.0 30.0)
  end
  begin
     id 17 
     name lclavicle
     direction 0.945646 0.319323 -0.0615358  
     length 4.0076  
     axis 0 0 0   XYZ
    dof ry rz
    limits (-20.0 10.0)
           (0.0 20.0)
  end
  begin
     id 18 
     name lhumerus
     direction 1 -4.48967e-011 -2.79996e-027   
     length 5.64147   
     axis 180 -30 -90   XYZ
    dof rx ry rz
    limits (-60.0 90.0)
           (-90.0 90.0)
           (-90.0 90.0)
  end
  begin
     id 19
     name lradius
     direction 1 -4.48976e-011 -9.5122e-027   
     length 2.86444   
     axis 180 -30 -90   XYZ
    dof rx
    limits (-10.0 170.0)
  end
  begin
     id 20
     name lwrist
     direction 1 -4.48983e-011 -1.24047e-026   
     length 1.43222   
     axis 9.05591e-015 90 90   XYZ
    dof ry
    limits (-180.0 0.0)
 end
  begin
     id 21 
     name lhand
     direction 1 -4.4892e-011 -2.48094e-026   
     length 0.722123   
     axis 1.58305e-014 90 90   XYZ
    dof rx rz
    limits (-90.0 90.0)
           (-45.0 45.0)
  end
  begin
     id 22 
     name lfingers
     direction 1 -4.48895e-011 -4.96187e-026   
     length 0.582194   
     axis 3.1661e-014 90 90   XYZ
    dof rx
    limits (0.0 90.0)
  end
  begin
     id 23
     name lthumb
     direction 0.707107 -6.34961e-011 0.707107   
     length 0.835918   
     axis -90 45 2.85299e-015   XYZ
    dof rx rz
    limits (-45.0 45.0)
           (-45.0 45.0)
  end
  begin
     id 24 
     name rclavicle
     direction -0.932635 0.324218 -0.15835   
     length 3.65819  
     axis 0 0 0   XYZ 
    dof ry rz
    limits (-10.0 20.0)
           (-20.0 0.0)
  end
  begin
     id 25 
     name rhumerus
     direction -1 -4.48965e-011 -4.02296e-027  
     length 5.44729   
     axis 180 30 90   XYZ
    dof rx ry rz
    limits (-90.0 60.0)
           (-90.0 90.0)
           (-90.0 90.0)
  end
  begin
     id 26 
     name rradius
     direction -1 -4.48957e-011 -8.81087e-027   
     length 3.08821   
     axis 180 30 90   XYZ
    dof rx
    limits (-10.0 170.0)
  end
  begin
     id 27 
     name rwrist
     direction -1 -4.49015e-011 -1.24047e-026   
     length 1.5441   
     axis 9.05591e-015 -90 -90   XYZ
    dof ry
    limits (-180.0 0.0)
  end
  begin
     id 28
     name rhand
     direction -1 -4.4891e-011 -2.48094e-026   
     length 0.821049   
     axis 1.58305e-014 -90 -90   XYZ
    dof rx rz
    limits (-90.0 90.0)
           (-45.0 45.0)
  end
  begin
     id 29
     name rfingers
     direction -1 -4.48985e-011 -4.96187e-026   
     length 0.661951   
     axis 3.1661e-014 -90 -90   XYZ
    dof rx
    limits (0.0 90.0)
  end
  begin
     id 30
     name rthumb
     direction -0.707107 -6.34906e-011 0.707107   
     length 0.950433   
     axis -90 -45 -2.85299e-015   XYZ
    dof rx rz
    limits (-45.0 45.0)
           (-45.0 45.0)
  end
:hierarchy
  begin
    root lhipjoint rhipjoint lowerback
    lhipjoint lfemur
    lfemur ltibia
    ltibia lfoot
    lfoot ltoes
    rhipjoint rfemur
    rfemur rtibia
    rtibia rfoot
    rfoot rtoes
    lowerback upperback
    upperback thorax
    thorax lowerneck lclavicle rclavicle
    lowerneck upperneck
    upperneck head
    lclavicle lhumerus
    lhumerus lradius
    lradius lwrist
    lwrist lhand lthumb
    lhand lfingers
    rclavicle rhumerus
    rhumerus rradius
    rradius rwrist
    rwrist rhand rthumb
    rhand rfingers
  end

#!OML:ASF F:\VICON\USERDATA\INSTALL\rory3\rory3.ASF
:FULLY-SPECIFIED
:DEGREES
1783
root 3.24723 17.7754 0.355118 -20.1482 87.9819 -20.7631
lowerback 1.57046 -0.0756848 2.70119
upperback 0.543551 -0.0603964 -0.745029
thorax -0.326853 -0.0274384 -2.27742
lowerneck -3.86333 -5.2417 -5.17863
upperneck 3.10959 -7.03677 7.98093
head 2.21162 -3.38914 3.28814
rclavicle 8.51047e-016 -8.15017e-015
rhumerus -33.062 0.0217965 -82.7472
rradius 27.3021
rwrist 23.0028
rhand -1.11157 11.6433
rfingers 7.12502
rthumb 24.5253 -16.8061
lclavicle 8.51047e-016 -8.15017e-015
lhumerus -33.2357 -4.71033 86.159
lradius 16.5668
lwrist 13.2185
lhand -4.47623 10.5393
lfingers 7.12502
lthumb 21.2966 39.3892
rfemur -0.326265 1.55375 19.4132
rtibia 14.1844
rfoot -15.4019 -0.691088
rtoes -7.50056
lfemur 0 0 0
ltibia 0
lfoot 0 0
ltoes 0
1784
root 3.25026 17.7821 0.357037 -18.4969 88.042 -19.0857
lowerback 1.59962 -0.0839899 2.61932
upperback 0.577219 -0.0720965 -0.791643
thorax -0.309369 -0.0325065 -2.27908
lowerneck -3.86072 -5.23374 -5.10526
upperneck 3.08654 -7.02851 7.98549
head 2.1996 -3.38401 3.27639
rclavicle 4.53478e-015 3.37934e-015
rhumerus -33.322 -0.810595 -82.4224
rradius 26.9377
rwrist 22.8547
rhand -1.12987 11.5622
rfingers 7.12502
rthumb 24.5077 -16.8897
lclavicle 4.53478e-015 3.37934e-015
lhumerus -33.5839 -4.09502 85.833
lradius 16.7812
lwrist 13.1537
lhand -4.54083 10.4069
lfingers 7.12502
lthumb 21.2345 39.2638
rfemur -0.354768 1.5836 19.3314
rtibia 14.2525
rfoot -15.453 -0.741137
rtoes -7.27751
lfemur 0 0 0
ltibia 0
lfoot 0 0
ltoes 0
1785
root 3.25191 17.7821 0.358982 -18.2889 88.0222 -18.8577
lowerback 1.62313 -0.0647376 2.62229
upperback 0.585526 -0.0458272 -0.821135
thorax -0.312498 -0.0192367 -2.31153
lowerneck -3.79667 -5.23108 -5.09484
upperneck 3.07422 -7.02963 8.06398
head 2.18745 -3.38379 3.30302
rclavicle -3.87009e-015 5.56597e-015
rhumerus -33.6668 -1.75506 -82.0516
rradius 26.7721
rwrist 22.8166
rhand -0.892352 11.2306
rfingers 7.12502
rthumb 24.7354 -17.1902
lclavicle -3.87009e-015 5.56597e-015
lhumerus -34.049 -3.98526 85.7635
lradius 17.2442
lwrist 13.6994
lhand -4.76052 10.497
lfingers 7.12502
lthumb 21.0235 39.3774
rfemur -0.349795 1.53305 19.3335
rtibia 14.2818
rfoot -15.4203 -0.697052
rtoes -7.47771
lfemur 0 0 0
ltibia 0
lfoot 0 0
ltoes 0
1786
root 3.25246 17.7761 0.363131 -19.9241 87.9553 -20.4983
lowerback 1.62595 -0.0377526 2.62707
upperback 0.597756 -0.00963632 -0.791436
thorax -0.299387 -0.000802639 -2.28438
lowerneck -3.78839 -5.22965 -5.11103
upperneck 3.08207 -7.0298 8.12363
head 2.19244 -3.38261 3.32692
rclavicle -4.38569e-015 9.74045e-015
rhumerus -33.9685 -2.66097 -81.6227
rradius 26.6488
rwrist 22.8331
rhand -0.890351 11.0146
rfingers 7.12502
rthumb 24.7373 -17.4059
lclavicle -4.38569e-015 9.74045e-015
lhumerus -34.4863 -3.89116 85.7721
lradius 17.7938
lwrist 14.5283
lhand -5.01969 10.702
lfingers 7.12502
lthumb 20.7745 39.61
rfemur -0.301898 1.53766 19.4511
rtibia 14.2297
rfoot -15.4073 -0.704422
rtoes -8.50219
lfemur 0 0 0
ltibia 0
lfoot 0 0
ltoes 0
1787
root 3.25264 17.7724 0.365317 -21.2931 87.9742 -21.8495
lowerback 1.67392 -0.0301472 2.65161
upperback 0.600721 0.00218206 -0.799598
thorax -0.32251 0.00486655 -2.30681
lowerneck -3.71016 -5.23967 -5.05835
upperneck 3.0128 -7.04432 8.12675
head 2.15382 -3.39144 3.31934
rclavicle 6.21202e-016 6.36111e-015
rhumerus -34.3462 -3.43279 -81.276
rradius 26.635
rwrist 22.7329
rhand -0.929229 10.8564
rfingers 7.12502
rthumb 24.7 -17.5693
lclavicle 6.21202e-016 6.36111e-015
lhumerus -34.9147 -3.73977 85.7481
lradius 18.3508
lwrist 15.5535
lhand -5.43145 10.877
lfingers 7.12502
lthumb 20.3788 39.8277
rfemur -0.199414 1.54875 19.5078
rtibia 14.1219
rfoot -15.4 -0.696414
rtoes -8.56624
lfemur 0 0 0
ltibia 0
lfoot 0 0
ltoes 0
